# xmcd CD database file
#
# Track frame offsets:
#	150
#	17340
#	34583
#	52654
#	67240
#	87275
#	105250
#	122952
#	142379
#	161561
#	179983
#	198965
#	217819
#	239256
#	256751
#	276268
#	294329
#
# Disc length: 4171 seconds
#
# Revision: 0
# Processed by: cddbd v1.5.1PL0 Copyright (c) Steve Scherf et al.
# Submitted via: CDex 1.51
#
DISCID=f3104911
DTITLE=Various Artist - Merengazo
DYEAR=2005
DGENRE=Merengue
TTITLE0=Eddy Herrera - El Idiota
TTITLE1=Fulanito - Pégate 2004
TTITLE2=Tony Tun Tun - Cuando La Vea
TTITLE3=Juan Luis Guerra - Las Avispas
TTITLE4=Sergio Vargas - Anoche Hablamos De Amor
TTITLE5=Rubby Pérez - Se Nos Fue El Amor
TTITLE6=Toño Rosario - La Morena
TTITLE7=Eddy Herrera - Para Siempre
TTITLE8=Olga Tañón - Cuando Tú No Estás
TTITLE9=Omar Enrique - No Te Olvido
TTITLE10=Grupo Manía - Un Beso
TTITLE11=Elvis Crespo - Hora Enamorada
TTITLE12=Grupo Manía - Chica Good
TTITLE13=Toño Rosario - Toy Encendío
TTITLE14=Grupo Manía - Se Me Sube
TTITLE15=Olga Tañón - Es Mentiroso
TTITLE16=Omar Enrique - Entre Tú Y Yo
EXTD=YEAR: 2005
EXTT0=
EXTT1=
EXTT2=
EXTT3=
EXTT4=
EXTT5=
EXTT6=
EXTT7=
EXTT8=
EXTT9=
EXTT10=
EXTT11=
EXTT12=
EXTT13=
EXTT14=
EXTT15=
EXTT16=
PLAYORDER=
